<svg xmlns="http://www.w3.org/2000/svg" width="30" height="30" id="Capa_1" style="font-weight=bold;" viewBox="0 0 480 480" x="0px" y="0px" xmlns:xml="http://www.w3.org/XML/1998/namespace" xml:space="preserve" version="1.1">
<g>
	<g  >
		<path d="M 424 0 H 56 c -4.418 0 -8 3.582 -8 8 v 240 c 0 4.418 3.582 8 8 8 h 80 v 16 H 96 c -4.418 0 -8 3.582 -8 8 v 56 H 56 c -4.418 0 -8 3.582 -8 8 v 128 c 0 4.418 3.582 8 8 8 h 272 c 4.418 0 8 -3.582 8 -8 V 344 c 0 -4.418 -3.582 -8 -8 -8 H 104 v -48 h 32 v 8 c 0 4.418 3.582 8 8 8 h 192 c 4.418 0 8 -3.582 8 -8 v -40 h 80 c 4.418 0 8 -3.582 8 -8 V 8 C 432 3.582 428.418 0 424 0 Z M 320 352 v 112 H 64 V 352 H 320 Z M 328 288 H 152 v -32 h 176 V 288 Z M 416 240 H 64 V 16 h 352 V 240 Z" />
	</g>
</g>
<g>
	<g>
		<path d="M 392 32 H 88 c -4.418 0 -8 3.582 -8 8 v 176 c 0 4.418 3.582 8 8 8 h 304 c 4.418 0 8 -3.582 8 -8 V 40 C 400 35.582 396.418 32 392 32 Z M 384 208 H 96 V 48 h 288 V 208 Z" />
	</g>
</g>
<g>
	<g>
		<rect x="112" y="64" width="16" height="16" />
	</g>
</g>
<g>
	<g>
		<rect x="112" y="96" width="16" height="96" />
	</g>
</g>
<g>
	<g>
		<rect x="112" y="368" width="16" height="16" />
	</g>
</g>
<g>
	<g>
		<rect x="144" y="368" width="16" height="16" />
	</g>
</g>
<g>
	<g>
		<rect x="208" y="368" width="16" height="16" />
	</g>
</g>
<g>
	<g>
		<rect x="176" y="368" width="16" height="16" />
	</g>
</g>
<g>
	<g>
		<rect x="80" y="368" width="16" height="16" />
	</g>
</g>
<g>
	<g>
		<rect x="240" y="368" width="16" height="16" />
	</g>
</g>
<g>
	<g>
		<rect x="240" y="400" width="16" height="16" />
	</g>
</g>
<g>
	<g>
		<rect x="208" y="400" width="16" height="16" />
	</g>
</g>
<g>
	<g>
		<rect x="80" y="400" width="16" height="16" />
	</g>
</g>
<g>
	<g>
		<rect x="176" y="400" width="16" height="16" />
	</g>
</g>
<g>
	<g>
		<rect x="112" y="400" width="16" height="16" />
	</g>
</g>
<g>
	<g>
		<rect x="144" y="400" width="16" height="16" />
	</g>
</g>
<g>
	<g>
		<path d="M 392 352 c -22.091 0 -40 17.909 -40 40 v 48 c 0 22.091 17.909 40 40 40 c 22.091 0 40 -17.909 40 -40 v -48 C 432 369.909 414.091 352 392 352 Z M 416 440 c 0 13.255 -10.745 24 -24 24 s -24 -10.745 -24 -24 v -48 c 0 -13.255 10.745 -24 24 -24 s 24 10.745 24 24 V 440 Z" />
	</g>
</g>
<g>
	<g>
		<path d="M 392 416 c -4.418 0 -8 3.582 -8 8 v 16 c 0 4.418 3.582 8 8 8 s 8 -3.582 8 -8 v -16 C 400 419.582 396.418 416 392 416 Z" />
	</g>
</g>
<g>
	<g>
		<path d="M 216 432 h -96 c -4.418 0 -8 3.582 -8 8 s 3.582 8 8 8 h 96 c 4.418 0 8 -3.582 8 -8 S 220.418 432 216 432 Z" />
	</g>
</g>
<g>
	<g>
		<path d="M 392 272 h -24 c -4.418 0 -8 3.582 -8 8 s 3.582 8 8 8 h 16 v 40 c 0 4.418 3.582 8 8 8 s 8 -3.582 8 -8 v -48 C 400 275.582 396.418 272 392 272 Z" />
	</g>
</g>
<g>
	<g>
		<rect x="272" y="432" width="32" height="16" />
	</g>
</g>
<g>
	<g>
		<rect x="272" y="400" width="32" height="16" />
	</g>
</g>
<g>
	<g>
		<rect x="272" y="368" width="32" height="16" />
	</g>
</g>
<g>
</g>
<g>
</g>
<g>
</g>
<g>
</g>
<g>
</g>
<g>
</g>
<g>
</g>
<g>
</g>
<g>
</g>
<g>
</g>
<g>
</g>
<g>
</g>
<g>
</g>
<g>
</g>
<g>
</g>
 <image x="45" y="55" width="80" height="80" href="./web.svg" />

</svg>