<svg id="Layer_1" enable-background="new 0 0 512.002 512.002" width="30" height="30" viewBox="0 0 512.002 512.002" xmlns="http://www.w3.org/2000/svg"><path d="m330 190c0-77.196-62.804-140-140-140-23.167 0-46.13 5.784-66.406 16.728-4.86 2.623-6.674 8.689-4.051 13.549 2.623 4.861 8.689 6.676 13.55 4.051 17.367-9.374 37.045-14.328 56.907-14.328 66.168 0 120 53.832 120 120s-53.832 120-120 120-120-53.832-120-120c0-15.417 2.886-30.431 8.577-44.626 2.055-5.127-.434-10.948-5.561-13.004-5.126-2.056-10.948.435-13.003 5.561-6.644 16.573-10.013 34.091-10.013 52.069 0 77.196 62.804 140 140 140s140-62.804 140-140z"/><path d="m190.001 290c55.14 0 100-44.859 100-100s-44.86-100-100-100-100 44.859-100 100 44.86 100 100 100zm0-180c44.112 0 80 35.888 80 80s-35.888 80-80 80-80-35.888-80-80 35.887-80 80-80z"/><path d="m512.002 214.913c0-8.622-3.884-13.586-6.454-16.871-1.928-2.465-2.205-2.926-2.205-4.546 0-1.621.277-2.083 2.206-4.548 2.57-3.285 6.453-8.249 6.453-16.87 0-11.645-9.391-22.37-13.429-26.441-4.066-4.1-14.803-13.636-26.647-13.636-8.622 0-13.586 3.884-16.871 6.453-2.465 1.929-2.926 2.206-4.547 2.206s-2.082-.277-4.547-2.206c-3.285-2.569-8.249-6.453-16.871-6.453s-13.585 3.884-16.871 6.453c-2.465 1.929-2.926 2.206-4.547 2.206s-2.083-.277-4.548-2.206c-3.285-2.569-8.249-6.453-16.87-6.453-2.803 0-5.213.414-7.311 1.057.642-2.098 1.057-4.508 1.057-7.311 0-8.621-3.883-13.585-6.453-16.87-1.929-2.465-2.206-2.926-2.206-4.547s.277-2.082 2.206-4.548c2.57-3.284 6.453-8.249 6.453-16.87s-3.883-13.586-6.453-16.87c-1.929-2.466-2.206-2.927-2.206-4.548s.277-2.082 2.206-4.547c2.57-3.285 6.453-8.249 6.453-16.87 0-11.646-9.391-22.371-13.429-26.441-4.066-4.1-14.802-13.636-26.647-13.636-8.622 0-13.585 3.884-16.871 6.453-2.465 1.929-2.926 2.206-4.547 2.206s-2.082-.277-4.547-2.206c-3.285-2.569-8.249-6.453-16.87-6.453s-13.585 3.884-16.871 6.453c-2.465 1.929-2.926 2.206-4.547 2.206s-2.083-.277-4.548-2.206c-3.284-2.569-8.248-6.453-16.87-6.453s-13.585 3.884-16.871 6.453c-2.465 1.929-2.926 2.206-4.547 2.206s-2.082-.277-4.547-2.206c-3.284-2.569-8.249-6.453-16.87-6.453s-13.585 3.884-16.871 6.453c-2.465 1.929-2.926 2.206-4.547 2.206s-2.082-.277-4.547-2.206c-3.285-2.569-8.249-6.453-16.871-6.453s-13.585 3.884-16.87 6.453c-2.465 1.929-2.926 2.206-4.547 2.206s-2.082-.277-4.547-2.206c-3.285-2.569-8.249-6.453-16.871-6.453s-13.585 3.884-16.871 6.453c-2.465 1.929-2.926 2.206-4.547 2.206s-2.083-.277-4.548-2.206c-3.284-2.569-8.248-6.453-16.869-6.453-8.622 0-13.586 3.884-16.871 6.453-2.465 1.929-2.926 2.206-4.547 2.206s-2.082-.277-4.547-2.206c-3.285-2.569-8.249-6.453-16.87-6.453-11.845 0-22.582 9.536-26.648 13.636-4.038 4.07-13.429 14.796-13.429 26.441 0 8.621 3.883 13.585 6.453 16.87 1.929 2.465 2.206 2.926 2.206 4.547s-.277 2.082-2.206 4.548c-2.569 3.284-6.453 8.249-6.453 16.87s3.883 13.586 6.453 16.87c1.929 2.466 2.206 2.927 2.206 4.548s-.277 2.082-2.206 4.547c-2.569 3.285-6.453 8.249-6.453 16.87s3.883 13.585 6.453 16.87c1.929 2.466 2.206 2.927 2.206 4.549 0 1.621-.277 2.082-2.205 4.546-2.57 3.285-6.454 8.249-6.454 16.871 0 8.621 3.883 13.585 6.453 16.87 1.929 2.465 2.206 2.926 2.206 4.547s-.277 2.082-2.206 4.548c-2.569 3.284-6.453 8.249-6.453 16.87s3.883 13.586 6.453 16.87c1.929 2.466 2.206 2.927 2.206 4.548s-.277 2.082-2.206 4.548c-2.569 3.284-6.453 8.248-6.453 16.869s3.883 13.586 6.453 16.87c1.929 2.466 2.206 2.927 2.206 4.548s-.277 2.082-2.206 4.548c-2.569 3.284-6.453 8.248-6.453 16.87s3.884 13.586 6.454 16.871c1.928 2.465 2.205 2.926 2.205 4.546 0 1.621-.277 2.083-2.206 4.548-2.569 3.285-6.453 8.249-6.453 16.87 0 11.645 9.391 22.37 13.429 26.441 4.066 4.1 14.803 13.636 26.648 13.636 8.622 0 13.585-3.884 16.871-6.453 2.465-1.929 2.926-2.206 4.547-2.206s2.082.277 4.547 2.206c3.285 2.569 8.249 6.453 16.871 6.453 8.621 0 13.585-3.884 16.87-6.453 2.465-1.929 2.927-2.206 4.548-2.206s2.082.277 4.547 2.206c3.285 2.569 8.249 6.453 16.871 6.453 2.803 0 5.213-.415 7.311-1.057-.642 2.098-1.057 4.508-1.057 7.311 0 8.621 3.883 13.585 6.453 16.869 1.929 2.466 2.206 2.927 2.206 4.549 0 1.621-.277 2.082-2.206 4.547-2.57 3.285-6.453 8.249-6.453 16.87s3.883 13.586 6.453 16.87c1.929 2.466 2.206 2.927 2.206 4.548s-.277 2.082-2.206 4.547c-2.57 3.285-6.453 8.249-6.453 16.87 0 11.646 9.391 22.371 13.429 26.441 4.066 4.1 14.803 13.636 26.648 13.636 8.622 0 13.585-3.884 16.871-6.453 2.465-1.929 2.926-2.206 4.547-2.206s2.082.277 4.547 2.206c3.285 2.569 8.249 6.453 16.87 6.453s13.585-3.884 16.87-6.453c2.465-1.929 2.927-2.206 4.548-2.206s2.082.277 4.547 2.206c3.285 2.569 8.249 6.453 16.871 6.453 8.621 0 13.585-3.884 16.87-6.453 2.465-1.929 2.927-2.206 4.548-2.206s2.082.277 4.547 2.205c3.285 2.57 8.249 6.454 16.871 6.454s13.585-3.884 16.871-6.453c2.465-1.929 2.926-2.206 4.547-2.206s2.082.277 4.547 2.206c3.285 2.569 8.25 6.453 16.871 6.453s13.585-3.884 16.87-6.454c2.465-1.928 2.926-2.205 4.547-2.205s2.083.277 4.548 2.206c3.285 2.569 8.249 6.453 16.87 6.453 8.622 0 13.585-3.884 16.87-6.453 2.465-1.929 2.927-2.206 4.548-2.206s2.082.277 4.547 2.206c3.285 2.569 8.249 6.453 16.871 6.453s13.585-3.884 16.871-6.453c2.465-1.929 2.926-2.206 4.547-2.206s2.082.277 4.547 2.206c3.285 2.569 8.249 6.453 16.871 6.453 11.845 0 22.581-9.536 26.647-13.636 4.038-4.07 13.429-14.796 13.429-26.441 0-8.621-3.883-13.585-6.453-16.87-1.929-2.465-2.206-2.926-2.206-4.547s.277-2.082 2.206-4.548c2.57-3.284 6.453-8.249 6.453-16.87s-3.883-13.585-6.453-16.87c-1.929-2.465-2.206-2.926-2.206-4.547 0-1.622.277-2.083 2.206-4.549 2.57-3.284 6.453-8.248 6.453-16.869s-3.883-13.586-6.453-16.87c-1.929-2.466-2.206-2.927-2.206-4.548s.277-2.082 2.206-4.548c2.57-3.284 6.453-8.248 6.453-16.869s-3.883-13.586-6.453-16.871c-1.929-2.465-2.206-2.926-2.206-4.547s.277-2.083 2.206-4.548c2.57-3.285 6.453-8.249 6.453-16.87 0-8.622-3.884-13.586-6.454-16.871-1.928-2.465-2.205-2.926-2.205-4.546 0-1.622.277-2.083 2.206-4.549 2.57-3.284 6.453-8.248 6.453-16.869s-3.883-13.586-6.453-16.871c-1.929-2.465-2.206-2.926-2.206-4.547s.277-2.082 2.206-4.548c2.565-3.284 6.449-8.248 6.449-16.87zm-70 107.089c0 66.168-53.832 120-120 120-44.405 0-84.597-24.469-105.36-62.529 5.514-1.144 9.092-3.928 11.647-5.926 2.465-1.929 2.926-2.206 4.547-2.206 1.079 0 1.655.135 2.639.787 17.882 30.818 50.819 49.873 86.527 49.873 55.14 0 100-44.859 100-100 0-35.708-19.056-68.646-49.874-86.527-.651-.984-.786-1.56-.786-2.639 0-1.621.277-2.082 2.206-4.548 1.998-2.553 4.782-6.132 5.926-11.646 38.059 20.763 62.528 60.955 62.528 105.361zm-75.43 44.363c4.038-4.071 13.429-14.797 13.429-26.441 0-8.621-3.883-13.585-6.453-16.87-1.929-2.465-2.206-2.927-2.206-4.548 0-1.62.277-2.081 2.205-4.546 2.57-3.285 6.454-8.249 6.454-16.871s-3.883-13.586-6.453-16.87c-1.929-2.466-2.206-2.927-2.206-4.548s.277-2.082 2.206-4.548c1.293-1.652 2.918-3.732 4.214-6.487 15.286 14.871 24.241 35.47 24.241 57.366 0 44.112-35.888 80-80 80-21.896 0-42.495-8.954-57.365-24.24 2.755-1.296 4.834-2.921 6.487-4.214 2.465-1.929 2.927-2.206 4.548-2.206s2.082.277 4.547 2.206c3.285 2.569 8.249 6.453 16.871 6.453s13.585-3.884 16.87-6.453c2.465-1.929 2.926-2.206 4.547-2.206s2.082.277 4.547 2.206c3.285 2.569 8.249 6.453 16.871 6.453 11.842 0 22.579-9.536 26.646-13.636zm-240.825-6.364c-1.621 0-2.082-.277-4.547-2.206-3.285-2.569-8.249-6.453-16.871-6.453s-13.586 3.884-16.871 6.453c-2.465 1.929-2.926 2.206-4.547 2.206s-2.082-.277-4.547-2.206c-3.285-2.569-8.249-6.453-16.871-6.453s-13.585 3.884-16.871 6.453c-2.465 1.929-2.926 2.206-4.547 2.206-1.853 0-6.87-2.096-12.448-7.72-5.26-5.305-7.627-10.42-7.627-12.357 0-1.621.277-2.082 2.206-4.547 2.57-3.285 6.453-8.25 6.453-16.871s-3.883-13.585-6.453-16.869c-1.929-2.466-2.206-2.927-2.206-4.548s.277-2.082 2.206-4.548c2.57-3.284 6.453-8.249 6.453-16.87s-3.883-13.586-6.453-16.87c-1.929-2.466-2.206-2.927-2.206-4.548s.277-2.082 2.205-4.546c2.57-3.285 6.454-8.249 6.454-16.871 0-8.621-3.883-13.586-6.453-16.87-1.929-2.466-2.206-2.927-2.206-4.548s.277-2.082 2.206-4.548c2.57-3.284 6.453-8.249 6.453-16.87s-3.883-13.585-6.453-16.87c-1.929-2.465-2.206-2.926-2.206-4.547s.277-2.082 2.206-4.548c2.57-3.284 6.453-8.248 6.453-16.869 0-8.622-3.883-13.586-6.453-16.871-1.929-2.466-2.206-2.927-2.206-4.548s.277-2.082 2.206-4.547c2.57-3.285 6.453-8.249 6.453-16.87s-3.883-13.586-6.453-16.87c-1.929-2.466-2.206-2.927-2.206-4.548s.277-2.082 2.206-4.548c2.57-3.284 6.453-8.249 6.453-16.87s-3.883-13.585-6.453-16.87c-1.929-2.465-2.206-2.926-2.206-4.547 0-1.938 2.367-7.053 7.628-12.357 5.578-5.624 10.596-7.72 12.449-7.72 1.621 0 2.082.277 4.547 2.206 3.285 2.569 8.249 6.453 16.871 6.453s13.585-3.884 16.871-6.453c2.464-1.929 2.925-2.206 4.546-2.206s2.082.277 4.547 2.206c3.285 2.569 8.25 6.453 16.871 6.453s13.585-3.884 16.871-6.453c2.465-1.929 2.926-2.206 4.547-2.206s2.082.277 4.547 2.206c3.285 2.569 8.249 6.453 16.871 6.453s13.586-3.884 16.871-6.454c2.465-1.928 2.926-2.205 4.547-2.205s2.082.277 4.548 2.206c3.285 2.569 8.249 6.453 16.87 6.453 8.622 0 13.585-3.884 16.871-6.453 2.465-1.929 2.926-2.206 4.547-2.206s2.083.277 4.548 2.206c3.285 2.569 8.249 6.453 16.87 6.453s13.585-3.884 16.871-6.453c2.465-1.929 2.926-2.206 4.547-2.206s2.082.277 4.547 2.206c3.285 2.569 8.25 6.453 16.871 6.453s13.585-3.884 16.871-6.453c2.465-1.929 2.926-2.206 4.547-2.206s2.082.277 4.547 2.205c3.285 2.57 8.249 6.454 16.871 6.454s13.585-3.884 16.871-6.453c2.465-1.929 2.926-2.206 4.547-2.206 1.853 0 6.87 2.096 12.448 7.72 5.258 5.304 7.624 10.42 7.624 12.357 0 1.621-.277 2.082-2.206 4.547-2.57 3.285-6.453 8.249-6.453 16.87s3.883 13.586 6.453 16.87c1.929 2.466 2.206 2.927 2.206 4.548s-.277 2.082-2.206 4.548c-2.57 3.284-6.453 8.249-6.453 16.87s3.883 13.585 6.453 16.87c1.929 2.465 2.206 2.926 2.206 4.547s-.277 2.082-2.206 4.548c-2.57 3.285-6.453 8.249-6.453 16.871 0 1.818.18 3.464.477 4.975.02.111.043.221.067.331 1.154 5.467 3.921 9.022 5.909 11.563 1.929 2.466 2.206 2.927 2.206 4.548s-.277 2.082-2.206 4.547c-2.57 3.285-6.453 8.249-6.453 16.87 0 7.178 2.691 11.816 5.075 15.065.017.023.033.045.05.068.462.627.912 1.207 1.328 1.737 1.929 2.466 2.206 2.927 2.206 4.548s-.277 2.082-2.206 4.548c-2.57 3.284-6.453 8.249-6.453 16.87 0 8.235 3.54 13.128 6.097 16.414.021.027.042.054.063.081.098.126.198.255.293.376 1.928 2.464 2.205 2.925 2.205 4.546s-.277 2.082-2.206 4.548c-2.57 3.284-6.453 8.249-6.453 16.87s3.883 13.586 6.453 16.87c1.929 2.466 2.206 2.927 2.206 4.548s-.277 2.082-2.206 4.548c-2.57 3.284-6.453 8.248-6.453 16.869s3.883 13.586 6.453 16.871c1.929 2.465 2.206 2.926 2.206 4.547 0 1.938-2.367 7.052-7.629 12.357-5.578 5.624-10.595 7.72-12.448 7.72-1.621 0-2.082-.277-4.547-2.206-3.285-2.569-8.249-6.453-16.871-6.453s-13.586 3.884-16.871 6.454c-2.465 1.928-2.926 2.205-4.547 2.205s-2.082-.277-4.547-2.206c-3.285-2.569-8.249-6.453-16.871-6.453s-13.586 3.884-16.871 6.453c-2.465 1.929-2.926 2.206-4.547 2.206s-2.082-.277-4.547-2.206c-.121-.095-.249-.194-.375-.292-.026-.021-.052-.041-.079-.061-3.285-2.557-8.18-6.099-16.417-6.099-8.622 0-13.585 3.884-16.87 6.453-2.465 1.929-2.927 2.206-4.548 2.206s-2.082-.277-4.547-2.206c-.533-.417-1.117-.87-1.747-1.334-.014-.011-.029-.021-.043-.032-3.25-2.387-7.891-5.087-15.081-5.087-8.621 0-13.585 3.884-16.87 6.453-2.466 1.929-2.927 2.206-4.548 2.206s-2.082-.277-4.547-2.205c-2.541-1.989-6.096-4.756-11.564-5.91-.108-.024-.217-.046-.326-.066-1.513-.297-3.161-.478-4.98-.478-8.622 0-13.585 3.884-16.871 6.453-2.461 1.928-2.922 2.205-4.543 2.205zm364.049-149.636c1.929 2.466 2.206 2.927 2.206 4.548s-.277 2.082-2.206 4.548c-2.57 3.284-6.453 8.249-6.453 16.87s3.883 13.585 6.453 16.87c1.928 2.465 2.206 2.927 2.206 4.548s-.277 2.082-2.205 4.546c-2.57 3.285-6.454 8.25-6.454 16.872 0 8.621 3.883 13.585 6.453 16.869 1.929 2.466 2.206 2.927 2.206 4.548s-.277 2.082-2.206 4.547c-2.57 3.285-6.453 8.25-6.453 16.871s3.883 13.585 6.453 16.87c1.928 2.465 2.206 2.927 2.206 4.548s-.277 2.082-2.205 4.546c-2.57 3.285-6.454 8.249-6.454 16.871 0 8.621 3.883 13.586 6.453 16.87 1.929 2.466 2.206 2.927 2.206 4.548 0 1.62-.277 2.081-2.205 4.547-2.57 3.284-6.454 8.249-6.454 16.871 0 8.621 3.883 13.585 6.453 16.87 1.929 2.465 2.206 2.926 2.206 4.547s-.277 2.082-2.206 4.548c-2.57 3.284-6.453 8.249-6.453 16.87s3.883 13.585 6.453 16.87c1.929 2.465 2.206 2.926 2.206 4.547 0 1.938-2.367 7.053-7.629 12.357-5.578 5.624-10.595 7.72-12.447 7.72-1.621 0-2.083-.277-4.548-2.206-3.285-2.569-8.249-6.453-16.87-6.453s-13.585 3.884-16.871 6.453c-2.465 1.929-2.926 2.206-4.547 2.206s-2.082-.277-4.547-2.206c-3.285-2.569-8.249-6.453-16.871-6.453s-13.586 3.884-16.871 6.453c-2.465 1.929-2.926 2.206-4.547 2.206s-2.082-.277-4.547-2.206c-3.285-2.569-8.249-6.453-16.871-6.453s-13.585 3.884-16.87 6.454c-2.465 1.928-2.926 2.205-4.547 2.205s-2.082-.277-4.548-2.206c-3.285-2.569-8.249-6.453-16.87-6.453-8.622 0-13.585 3.884-16.871 6.453-2.465 1.929-2.926 2.206-4.547 2.206s-2.082-.277-4.547-2.206c-3.285-2.569-8.249-6.453-16.87-6.453s-13.586 3.884-16.871 6.453c-2.465 1.929-2.926 2.206-4.547 2.206s-2.082-.277-4.547-2.206c-3.285-2.569-8.249-6.453-16.871-6.453s-13.586 3.884-16.871 6.453c-2.465 1.929-2.926 2.206-4.547 2.206s-2.082-.277-4.547-2.205c-3.285-2.57-8.249-6.454-16.871-6.454s-13.585 3.884-16.871 6.453c-2.465 1.929-2.926 2.206-4.547 2.206-1.853 0-6.87-2.096-12.448-7.72-5.262-5.305-7.629-10.42-7.629-12.357 0-1.621.277-2.082 2.206-4.547 2.57-3.285 6.453-8.249 6.453-16.87s-3.883-13.586-6.453-16.87c-1.929-2.466-2.206-2.927-2.206-4.548s.277-2.082 2.206-4.547c2.57-3.285 6.453-8.249 6.453-16.87 0-8.622-3.884-13.587-6.454-16.871-1.928-2.466-2.205-2.927-2.205-4.547 0-1.621.277-2.082 2.206-4.548.942-1.204 2.06-2.637 3.099-4.39 2.865 1.496 6.509 2.684 11.276 2.684 8.622 0 13.586-3.884 16.871-6.453 2.465-1.929 2.926-2.206 4.547-2.206.387 0 .706.018 1.004.068 20.488 54.344 72.623 90.592 130.998 90.592 77.196 0 140-62.804 140-140 0-58.376-36.248-110.511-90.592-130.999-.05-.298-.068-.616-.068-1.003 0-1.621.277-2.082 2.206-4.547 2.57-3.285 6.453-8.249 6.453-16.87 0-4.767-1.189-8.411-2.685-11.276 1.754-1.039 3.187-2.157 4.392-3.1 2.465-1.929 2.926-2.206 4.547-2.206s2.082.277 4.547 2.206c3.285 2.569 8.25 6.453 16.871 6.453s13.585-3.884 16.871-6.453c2.465-1.929 2.926-2.206 4.547-2.206s2.082.277 4.547 2.206c3.285 2.569 8.249 6.453 16.871 6.453s13.585-3.884 16.87-6.453c2.465-1.929 2.927-2.206 4.548-2.206 1.853 0 6.87 2.096 12.447 7.72 5.262 5.306 7.629 10.42 7.629 12.357 0 1.621-.277 2.082-2.206 4.547-2.57 3.285-6.453 8.25-6.453 16.871s3.884 13.585 6.454 16.869z"/><path d="m141.178 208.298c12.169 19.289 34.378 35.716 46.698 38.394.7.152 1.412.229 2.124.229s1.424-.076 2.124-.229c12.32-2.678 34.529-19.104 46.698-38.394 7.767-12.31 10.545-24.454 8.036-35.119-2.957-12.569-13.344-22.992-25.847-25.937-11.197-2.637-22.704.421-31.012 8.186-8.307-7.765-19.814-10.824-31.011-8.186-12.503 2.944-22.891 13.367-25.848 25.937-2.507 10.665.271 22.809 8.038 35.119zm49.622-52.099c-.002-.003-.004-.004-.006-.006zm-38.189 21.56c1.242-5.278 5.75-9.821 10.964-11.05 1.103-.26 2.211-.387 3.308-.387 3.654 0 7.163 1.415 9.798 4.042v-.001c3.574 3.563 8.288 5.537 13.368 5.561 4.986-.023 9.7-1.998 13.273-5.56 3.426-3.415 8.323-4.781 13.106-3.655 5.213 1.229 9.721 5.771 10.963 11.05 1.583 6.729-2.107 14.519-5.482 19.868-8.91 14.122-24.449 25.704-31.907 28.815-7.458-3.111-22.997-14.693-31.907-28.815-3.377-5.35-7.068-13.14-5.484-19.868z"/><path d="m93.03 113.415c5.523 0 10-4.478 10-10s-4.477-10-10-10h-.007c-5.523 0-9.996 4.478-9.996 10s4.48 10 10.003 10z"/></svg>